<svg xmlns="http://www.w3.org/2000/svg" xmlns:xlink="http://www.w3.org/1999/xlink" viewBox="0 0 389.7142857142857 347.8095238095238" width="389.7142857142857" height="347.8095238095238"><path d="M 105.591,261.962 C 103.997,257.558 102.776,257.699 102.404,253.154" stroke-width="5.189" stroke="black" fill="none" stroke-linecap="round"></path><path d="M 102.404,253.154 C 101.907,247.094 103.411,246.974 103.852,240.752" stroke-width="3.579" stroke="black" fill="none" stroke-linecap="round"></path><path d="M 103.852,240.752 C 104.425,232.690 104.524,232.665 104.432,224.584" stroke-width="2.993" stroke="black" fill="none" stroke-linecap="round"></path><path d="M 104.432,224.584 C 104.322,214.961 104.294,214.927 103.447,205.344" stroke-width="2.670" stroke="black" fill="none" stroke-linecap="round"></path><path d="M 103.447,205.344 C 102.990,200.179 102.934,200.155 101.824,195.087" stroke-width="3.149" stroke="black" fill="none" stroke-linecap="round"></path><path d="M 101.824,195.087 C 99.660,185.204 99.784,185.137 96.899,175.442" stroke-width="2.651" stroke="black" fill="none" stroke-linecap="round"></path><path d="M 96.899,175.442 C 94.308,166.738 94.012,166.818 90.872,158.288" stroke-width="2.698" stroke="black" fill="none" stroke-linecap="round"></path><path d="M 90.872,158.288 C 88.391,151.548 88.427,151.526 85.657,144.902" stroke-width="2.879" stroke="black" fill="none" stroke-linecap="round"></path><path d="M 85.657,144.902 C 83.762,140.371 83.992,140.197 81.542,135.977" stroke-width="3.278" stroke="black" fill="none" stroke-linecap="round"></path><path d="M 81.542,135.977 C 80.022,133.359 78.323,130.846 77.718,131.226" stroke-width="3.796" stroke="black" fill="none" stroke-linecap="round"></path><path d="M 77.718,131.226 C 77.077,131.628 77.504,134.798 79.051,137.542" stroke-width="4.629" stroke="black" fill="none" stroke-linecap="round"></path><path d="M 79.051,137.542 C 81.995,142.766 82.736,142.469 86.700,147.162" stroke-width="3.511" stroke="black" fill="none" stroke-linecap="round"></path><path d="M 86.700,147.162 C 91.863,153.276 91.699,153.452 97.304,159.158" stroke-width="2.990" stroke="black" fill="none" stroke-linecap="round"></path><path d="M 97.304,159.158 C 106.359,168.374 106.696,168.048 116.021,177.007" stroke-width="2.348" stroke="black" fill="none" stroke-linecap="round"></path><path d="M 116.021,177.007 C 123.587,184.274 123.555,184.308 131.088,191.610" stroke-width="2.407" stroke="black" fill="none" stroke-linecap="round"></path><path d="M 131.088,191.610 C 134.854,195.261 134.762,195.360 138.621,198.912" stroke-width="3.024" stroke="black" fill="none" stroke-linecap="round"></path><path d="M 138.621,198.912 C 146.033,205.733 146.311,205.438 153.629,212.356" stroke-width="2.694" stroke="black" fill="none" stroke-linecap="round"></path><path d="M 153.629,212.356 C 161.145,219.462 160.915,219.704 168.290,226.960" stroke-width="2.454" stroke="black" fill="none" stroke-linecap="round"></path><path d="M 168.290,226.960 C 175.228,233.786 175.230,233.785 182.256,240.520" stroke-width="2.512" stroke="black" fill="none" stroke-linecap="round"></path><path d="M 182.256,240.520 C 188.529,246.534 189.008,246.091 194.888,252.458" stroke-width="2.695" stroke="black" fill="none" stroke-linecap="round"></path><path d="M 194.888,252.458 C 199.873,257.855 200.002,257.896 203.986,264.048" stroke-width="2.854" stroke="black" fill="none" stroke-linecap="round"></path><path d="M 203.986,264.048 C 207.188,268.993 207.473,269.099 209.259,274.653" stroke-width="3.109" stroke="black" fill="none" stroke-linecap="round"></path><path d="M 209.259,274.653 C 210.631,278.921 211.012,279.403 210.302,283.694" stroke-width="3.428" stroke="black" fill="none" stroke-linecap="round"></path><path d="M 210.302,283.694 C 209.679,287.458 209.246,288.020 206.594,290.763" stroke-width="3.649" stroke="black" fill="none" stroke-linecap="round"></path><path d="M 206.594,290.763 C 204.147,293.293 203.566,293.221 200.103,294.241" stroke-width="3.789" stroke="black" fill="none" stroke-linecap="round"></path><path d="M 200.103,294.241 C 196.380,295.336 196.059,295.523 192.223,294.994" stroke-width="3.823" stroke="black" fill="none" stroke-linecap="round"></path><path d="M 192.223,294.994 C 187.454,294.335 187.104,294.267 182.893,291.865" stroke-width="3.578" stroke="black" fill="none" stroke-linecap="round"></path><path d="M 182.893,291.865 C 177.456,288.762 177.145,288.637 172.926,283.983" stroke-width="3.256" stroke="black" fill="none" stroke-linecap="round"></path><path d="M 172.926,283.983 C 167.845,278.379 167.791,278.102 164.292,271.350" stroke-width="3.043" stroke="black" fill="none" stroke-linecap="round"></path><path d="M 164.292,271.350 C 160.026,263.121 160.514,262.804 157.396,254.023" stroke-width="2.998" stroke="black" fill="none" stroke-linecap="round"></path><path d="M 157.396,254.023 C 153.908,244.202 153.838,244.193 151.080,234.146" stroke-width="2.586" stroke="black" fill="none" stroke-linecap="round"></path><path d="M 151.080,234.146 C 148.564,224.983 148.865,224.895 146.850,215.602" stroke-width="2.634" stroke="black" fill="none" stroke-linecap="round"></path><path d="M 146.850,215.602 C 144.026,202.584 143.987,202.590 141.402,189.524" stroke-width="2.244" stroke="black" fill="none" stroke-linecap="round"></path><path d="M 141.402,189.524 C 139.207,178.425 139.233,178.417 137.288,167.271" stroke-width="2.303" stroke="black" fill="none" stroke-linecap="round"></path><path d="M 137.288,167.271 C 135.466,156.830 135.905,156.745 133.869,146.351" stroke-width="2.383" stroke="black" fill="none" stroke-linecap="round"></path><path d="M 133.869,146.351 C 132.313,138.404 132.341,138.364 130.103,130.588" stroke-width="2.657" stroke="black" fill="none" stroke-linecap="round"></path><path d="M 130.103,130.588 C 128.487,124.977 128.681,124.795 126.162,119.578" stroke-width="3.046" stroke="black" fill="none" stroke-linecap="round"></path><path d="M 126.162,119.578 C 124.624,116.392 124.592,116.010 121.990,113.783" stroke-width="3.634" stroke="black" fill="none" stroke-linecap="round"></path><path d="M 121.990,113.783 C 120.159,112.215 117.967,110.696 117.296,111.986" stroke-width="4.475" stroke="black" fill="none" stroke-linecap="round"></path><path d="M 117.296,111.986 C 116.084,114.318 116.857,116.762 118.223,121.026" stroke-width="4.032" stroke="black" fill="none" stroke-linecap="round"></path><path d="M 118.223,121.026 C 120.246,127.338 120.795,127.288 124.076,133.138" stroke-width="3.363" stroke="black" fill="none" stroke-linecap="round"></path><path d="M 124.076,133.138 C 126.271,137.053 126.386,137.030 129.175,140.556" stroke-width="3.525" stroke="black" fill="none" stroke-linecap="round"></path><path d="M 129.175,140.556 C 134.296,147.027 134.399,146.965 139.896,153.131" stroke-width="2.958" stroke="black" fill="none" stroke-linecap="round"></path><path d="M 139.896,153.131 C 144.164,157.918 144.132,157.969 148.704,162.461" stroke-width="3.071" stroke="black" fill="none" stroke-linecap="round"></path><path d="M 148.704,162.461 C 152.389,166.082 152.549,165.918 156.411,169.357" stroke-width="3.305" stroke="black" fill="none" stroke-linecap="round"></path><path d="M 156.411,169.357 C 159.155,171.800 159.055,171.929 161.916,174.225" stroke-width="3.671" stroke="black" fill="none" stroke-linecap="round"></path><path d="M 161.916,174.225 C 164.038,175.928 165.219,177.934 166.378,177.354" stroke-width="4.398" stroke="black" fill="none" stroke-linecap="round"></path><path d="M 166.378,177.354 C 167.537,176.775 167.059,174.525 166.552,171.907" stroke-width="4.843" stroke="black" fill="none" stroke-linecap="round"></path><path d="M 166.552,171.907 C 165.958,168.846 165.386,168.942 164.176,165.996" stroke-width="4.238" stroke="black" fill="none" stroke-linecap="round"></path><path d="M 164.176,165.996 C 163.184,163.582 161.580,161.666 162.148,161.186" stroke-width="4.700" stroke="black" fill="none" stroke-linecap="round"></path><path d="M 162.148,161.186 C 162.710,160.710 164.477,164.373 166.436,164.084" stroke-width="4.812" stroke="black" fill="none" stroke-linecap="round"></path><path d="M 166.436,164.084 C 168.592,163.765 169.575,162.374 170.376,159.969" stroke-width="5.150" stroke="black" fill="none" stroke-linecap="round"></path><path d="M 170.376,159.969 C 171.081,157.854 168.442,155.908 169.449,155.043" stroke-width="4.511" stroke="black" fill="none" stroke-linecap="round"></path><path d="M 169.449,155.043 C 170.500,154.141 173.269,157.605 174.491,156.434" stroke-width="5.088" stroke="black" fill="none" stroke-linecap="round"></path><path d="M 174.491,156.434 C 176.080,154.910 173.410,151.868 175.070,149.654" stroke-width="5.085" stroke="black" fill="none" stroke-linecap="round"></path><path d="M 175.070,149.654 C 176.452,147.811 179.495,150.312 180.575,148.321" stroke-width="5.311" stroke="black" fill="none" stroke-linecap="round"></path><path d="M 180.575,148.321 C 182.277,145.184 180.194,139.639 180.633,139.397" stroke-width="4.660" stroke="black" fill="none" stroke-linecap="round"></path><path d="M 180.633,139.397 C 181.034,139.175 180.630,143.807 182.256,147.394" stroke-width="4.970" stroke="black" fill="none" stroke-linecap="round"></path><path d="M 182.256,147.394 C 183.440,150.008 184.217,149.631 186.254,151.798" stroke-width="4.328" stroke="black" fill="none" stroke-linecap="round"></path><path d="M 186.254,151.798 C 188.302,153.978 188.423,153.866 190.426,156.086" stroke-width="4.161" stroke="black" fill="none" stroke-linecap="round"></path><path d="M 190.426,156.086 C 194.826,160.965 195.077,160.802 199.060,165.996" stroke-width="4.038" stroke="black" fill="none" stroke-linecap="round"></path><path d="M 199.060,165.996 C 200.988,168.510 200.805,168.671 202.247,171.501" stroke-width="4.029" stroke="black" fill="none" stroke-linecap="round"></path><path d="M 202.247,171.501 C 203.876,174.698 205.984,177.589 205.203,178.050" stroke-width="4.408" stroke="black" fill="none" stroke-linecap="round"></path><path d="M 205.203,178.050 C 204.361,178.546 201.239,176.400 199.002,173.414" stroke-width="4.899" stroke="black" fill="none" stroke-linecap="round"></path><path d="M 199.002,173.414 C 196.487,170.055 197.270,169.417 195.699,165.358" stroke-width="3.946" stroke="black" fill="none" stroke-linecap="round"></path><path d="M 195.699,165.358 C 193.648,160.058 193.688,160.042 191.759,154.696" stroke-width="3.525" stroke="black" fill="none" stroke-linecap="round"></path><path d="M 191.759,154.696 C 189.747,149.118 189.520,149.184 187.819,143.511" stroke-width="3.314" stroke="black" fill="none" stroke-linecap="round"></path><path d="M 187.819,143.511 C 186.130,137.884 186.199,137.845 184.979,132.095" stroke-width="3.263" stroke="black" fill="none" stroke-linecap="round"></path><path d="M 184.979,132.095 C 183.765,126.371 183.890,126.341 182.951,120.563" stroke-width="3.310" stroke="black" fill="none" stroke-linecap="round"></path><path d="M 182.951,120.563 C 182.209,115.997 182.488,115.942 181.618,111.407" stroke-width="3.427" stroke="black" fill="none" stroke-linecap="round"></path><path d="M 181.618,111.407 C 181.126,108.843 179.966,106.182 180.227,106.365" stroke-width="4.316" stroke="black" fill="none" stroke-linecap="round"></path><path d="M 180.227,106.365 C 180.546,106.588 181.460,109.311 182.777,112.218" stroke-width="4.571" stroke="black" fill="none" stroke-linecap="round"></path><path d="M 182.777,112.218 C 183.981,114.874 183.965,114.883 185.269,117.491" stroke-width="4.247" stroke="black" fill="none" stroke-linecap="round"></path><path d="M 185.269,117.491 C 187.036,121.026 186.965,121.071 188.920,124.503" stroke-width="3.898" stroke="black" fill="none" stroke-linecap="round"></path><path d="M 188.920,124.503 C 190.876,127.938 190.924,127.918 193.092,131.226" stroke-width="3.803" stroke="black" fill="none" stroke-linecap="round"></path><path d="M 193.092,131.226 C 195.444,134.814 194.942,135.429 197.959,138.296" stroke-width="4.225" stroke="black" fill="none" stroke-linecap="round"></path><path d="M 197.959,138.296 C 200.128,140.355 201.330,141.913 203.464,141.077" stroke-width="4.613" stroke="black" fill="none" stroke-linecap="round"></path><path d="M 203.464,141.077 C 206.140,140.029 206.518,138.081 207.579,134.529" stroke-width="4.555" stroke="black" fill="none" stroke-linecap="round"></path><path d="M 207.579,134.529 C 208.517,131.388 208.430,127.904 207.463,127.691" stroke-width="4.610" stroke="black" fill="none" stroke-linecap="round"></path><path d="M 207.463,127.691 C 206.460,127.469 205.012,130.448 203.638,133.659" stroke-width="4.827" stroke="black" fill="none" stroke-linecap="round"></path><path d="M 203.638,133.659 C 202.347,136.678 200.726,139.730 202.132,140.150" stroke-width="4.706" stroke="black" fill="none" stroke-linecap="round"></path><path d="M 202.132,140.150 C 204.116,140.744 206.488,138.230 210.418,135.688" stroke-width="4.704" stroke="black" fill="none" stroke-linecap="round"></path><path d="M 210.418,135.688 C 212.804,134.144 212.540,133.771 214.764,131.979" stroke-width="4.298" stroke="black" fill="none" stroke-linecap="round"></path><path d="M 214.764,131.979 C 217.755,129.569 217.838,129.671 220.849,127.285" stroke-width="3.937" stroke="black" fill="none" stroke-linecap="round"></path><path d="M 220.849,127.285 C 224.820,124.137 224.722,124.012 228.730,120.910" stroke-width="3.578" stroke="black" fill="none" stroke-linecap="round"></path><path d="M 228.730,120.910 C 232.922,117.666 233.034,117.812 237.248,114.594" stroke-width="3.497" stroke="black" fill="none" stroke-linecap="round"></path><path d="M 237.248,114.594 C 241.002,111.727 240.954,111.664 244.665,108.741" stroke-width="3.525" stroke="black" fill="none" stroke-linecap="round"></path><path d="M 244.665,108.741 C 247.502,106.506 247.557,106.572 250.344,104.279" stroke-width="3.763" stroke="black" fill="none" stroke-linecap="round"></path><path d="M 250.344,104.279 C 252.627,102.400 252.575,102.338 254.806,100.396" stroke-width="3.997" stroke="black" fill="none" stroke-linecap="round"></path><path d="M 254.806,100.396 C 257.269,98.252 257.187,98.149 259.732,96.108" stroke-width="4.447" stroke="black" fill="none" stroke-linecap="round"></path><path d="M 259.732,96.108 C 262.170,94.151 265.583,91.694 264.773,92.399" stroke-width="4.624" stroke="black" fill="none" stroke-linecap="round"></path></svg>